-
http:// www. Speed. Cd       
http:// www. Speed. Cd       the fast  and The Hottest Private Tracker on the net

Please Seed back to make the speed Faster!!!

and don't forget to visit      ...... www. Speed. Cd..........
-[align=center][IMG]http://img846.imageshack.us/img846/5227/topguncover.jpg[/IMG]

** ** ** ** ** ** ** ** **

[color=#FF0000][b][i]THIS IS A INTERNAL RELEASE ONLY FOR TWISTED TORRENTS[/i][/b][/color]

** ** ** ** ** ** ** ** ** 

IMDB........ http://www.imdb.com/title/tt0092099/

** ** ** ** ** ** ** ** ** 

[b]PLOT[/b]

The macho students of an elite US Flying school for advanced fighter pilots compete to be best in the class, and one romances the teacher. 

** ** ** ** ** ** ** ** ** 

[b]AVI Information[/b]

Complete name : Top.Gun.1986.480 BRRip Xvid AC3 - PRESTiGE.avi 
Format : AVI 
Format/Info : Audio Video Interleave 
Format profile : OpenDML 
Format settings : rec 
File size : 1.88 GiB 
Duration : 1h 49mn 
Overall bit rate : 2 449 Kbps 
Source: Top.Gun.1986.720p.HDDVD.x264-SEPTiC
Encoder: Twisted

[b]Video Stream[/b]

ID : 0 
Format : MPEG-4 Visual 
Format profile : Advanced Simple@L5 
Format settings, BVOP : 2 
Format settings, QPel : No 
Format settings, GMC : No warppoints 
Format settings, Matrix : Default (MPEG) 
Codec ID : XVID 
Codec ID/Hint : XviD 
Duration : 1h 49mn 
Bit rate : 1 996 Kbps 
Width : 720 pixels 
Height : 304 pixels 
Display aspect ratio : 2.35:1 
Frame rate : 23.976 fps 
Color space : YUV 
Chroma subsampling : 4:2:0 
Bit depth : 8 bits 
Scan type : Progressive 
Compression mode : Lossy 
Bits/(Pixel*Frame) : 0.380 
Stream size : 1.53 GiB (81%) 
Writing library : XviD 1.2.1 (UTC 2008-12-04) 


[b]Audio Stream[/b]

ID : 1 
Format : AC-3 
Format/Info : Audio Coding 3 
Mode extension : CM (complete main) 
Codec ID : 2000 
Duration : 1h 49mn 
Bit rate mode : Constant 
Bit rate : 448 Kbps 
Channel(s) : 6 channels 
Channel positions : Front: L C R, Side: L R, LFE 
Sampling rate : 48.0 KHz 
Bit depth : 16 bits 
Compression mode : Lossy 
Stream size : 351 MiB (18%) 
Alignment : Aligned on interleaves 
Interleave, duration : 64 ms (1.53 video frames) 
Interleave, preload duration : 192 ms 
Title : T2_Audio - 5.1 channels_new 


** ** ** ** ** ** ** ** ** 

[b]Screens[/b]

[IMG]http://img695.imageshack.us/img695/4825/pic11q.png[/IMG]
[IMG]http://img713.imageshack.us/img713/7113/pic12m.png[/IMG]
[IMG]http://img98.imageshack.us/img98/3742/pic13ea.png[/IMG]
[IMG]http://img97.imageshack.us/img97/664/pic14h.png[/IMG]
[IMG]http://img822.imageshack.us/img822/5214/pic15z.png[/IMG]
[IMG]http://img600.imageshack.us/img600/1263/pic16.png[/IMG]
[IMG]http://img856.imageshack.us/img856/9453/pic17l.png[/IMG]
[IMG]http://img97.imageshack.us/img97/6056/pic18h.png[/IMG]

** ** ** ** ** ** ** ** **

Note

PRESTiGE - IS LOOKING FOR?: CAMMER'S, AUDIO SUPPLIERS, SYNCER'S, RETAIL SUPPLIER'S, SILVER'S, SCREENER'S, LINE CAPPER'S

ENCODER'S - ANYTHING AT ALL EMAIL US AT..... prestige@twistedtorrents.com

** ** ** ** ** ** ** ** **

Greets Are Flying Out To:

[b]BmB,HiTM4N,BIGGUY,Demedic,DiLLoN,Imagine,CTFX,Jammo
Encoders Past And Present[/b]

** ** ** ** ** ** ** ** ** 

PRESTiGE is the level of respect at which one is regarded by others....RIzE Above Or Sink Below

[IMG]http://leetleech.org/images/83508160282003703104.png[/IMG][/align]